<!-- Generated by IcoMoon.io -->
<svg version="1.1" xmlns="http://www.w3.org/2000/svg" width="1024" height="1024" viewBox="0 0 1024 1024">
<title></title>
<g id="icomoon-ignore">
</g>
<path fill="#000" d="M113.778 0h796.443c62.838 0 113.778 50.94 113.778 113.778v0 796.443c0 62.838-50.94 113.778-113.778 113.778v0h-796.443c-62.838 0-113.778-50.94-113.778-113.778v0-796.443c0-62.838 50.94-113.778 113.778-113.778v0zM853.332 113.778h-142.222c-109.966 0-199.11 89.146-199.11 199.11v0 142.222h-113.778v170.668h113.778v398.222h170.668v-398.222h170.668v-170.668h-170.668v-113.778c0-31.419 25.471-56.89 56.89-56.89v0h113.778v-170.668z"></path>
</svg>
