<!-- Generated by IcoMoon.io -->
<svg version="1.1" xmlns="http://www.w3.org/2000/svg" width="1024" height="1024" viewBox="0 0 1024 1024">
<title></title>
<g id="icomoon-ignore">
</g>
<path fill="#304ffe" d="M739.556 1023.998h-455.11c-156.444 0-284.444-128-284.444-284.444v-455.11c0-156.444 128-284.444 284.444-284.444h455.11c156.444 0 284.444 128 284.444 284.444v455.11c0 156.444-128 284.444-284.444 284.444z"></path>
<path fill="#304ffe" opacity="0.2902" d="M0.001 284.443v455.11c0 156.444 128 284.444 284.444 284.444h455.11c156.444 0 284.444-128 284.444-284.444v-455.11c0-28.444-2.844-54.044-11.377-79.644-159.289-128-364.089-204.8-585.955-204.8-105.244 0-207.644 17.067-304.356 51.2-73.956 51.2-122.311 136.533-122.311 233.244z"></path>
<path fill="#6200ea" d="M426.667 56.889c-142.222 0-273.066 34.133-392.533 91.023-22.756 42.667-34.133 88.177-34.133 136.533v455.11c0 156.444 128 284.444 284.444 284.444h455.11c156.444 0 284.444-128 284.444-284.444v-449.422c-156.444-145.066-366.933-233.244-597.333-233.244z"></path>
<path fill="#673ab7" d="M1023.999 369.777c-150.756-156.444-361.244-256-597.333-256-153.6 0-298.666 42.667-420.977 116.623-2.844 17.067-5.689 34.133-5.689 54.044v455.11c0 156.444 128 284.444 284.444 284.444h455.11c156.444 0 284.444-128 284.444-284.444v-369.777z"></path>
<path fill="#8e24aa" d="M1023.999 455.11c-139.377-173.51-355.556-284.444-597.333-284.444-159.289 0-304.356 48.356-426.666 130.844v438.043c0 156.444 128 284.444 284.444 284.444h455.11c156.444 0 284.444-128 284.444-284.444v-284.444z"></path>
<path fill="#c2185b" d="M1023.999 739.555v-187.733c-128-193.422-347.022-324.266-597.333-324.266-159.289 0-307.2 54.044-426.666 142.222v369.777c0 156.444 128 284.444 284.444 284.444h455.11c156.444 0 284.444-128 284.444-284.444z"></path>
<path fill="#d81b60" d="M1023.999 739.555v-68.267c-102.4-227.556-329.956-386.843-597.333-386.843-162.133 0-312.889 59.733-426.666 159.289v295.822c0 156.444 128 284.444 284.444 284.444h455.11c156.444 0 284.444-128 284.444-284.444z"></path>
<path fill="#f50057" d="M1012.622 819.199c-54.044-273.066-295.822-477.866-585.955-477.866-167.822 0-318.577 68.267-426.666 179.2v219.022c0 156.444 128 284.444 284.444 284.444h455.11c128 0 238.933-85.333 273.066-204.8z"></path>
<path fill="#ff1744" d="M964.266 910.221c-14.223-284.444-247.466-511.999-537.599-511.999-173.51 0-327.11 82.489-426.666 210.489v130.844c0 156.444 128 284.444 284.444 284.444h455.11c91.023 0 173.51-45.511 224.71-113.777z"></path>
<path fill="#ff5722" d="M426.667 455.11c-184.889 0-344.177 102.4-426.666 256v28.444c0 156.444 128 284.444 284.444 284.444h455.11c62.577 0 122.311-19.911 167.822-56.889 0-8.533 2.844-19.911 2.844-28.444 0-267.377-216.177-483.555-483.555-483.555z"></path>
<path fill="#ff6f00" d="M426.667 511.999c-199.11 0-364.089 133.689-412.443 318.577 36.977 113.777 145.066 193.422 270.222 193.422h455.11c39.823 0 73.956-8.533 108.089-22.756 2.844-19.911 5.689-42.667 5.689-62.577 0-236.089-190.577-426.666-426.666-426.666z"></path>
<path fill="#ff9800" d="M426.667 568.888c-196.266 0-355.556 150.756-366.933 341.333 51.2 68.267 133.689 113.777 224.71 113.777h455.11c17.067 0 31.289-2.844 48.356-5.689 5.689-25.6 8.533-51.2 8.533-79.644 0-204.8-164.977-369.777-369.777-369.777z"></path>
<path fill="#ffc107" d="M728.177 1023.998c8.533-28.444 11.377-56.889 11.377-85.333 0-173.51-139.377-312.889-312.889-312.889s-312.889 139.377-312.889 312.889c0 8.533 0 19.911 2.844 28.444 48.356 34.133 105.244 56.889 167.822 56.889h443.733z"></path>
<path fill="#ffd54f" d="M426.667 682.665c-142.222 0-256 113.777-256 256 0 22.756 2.844 45.511 8.533 65.423 31.289 14.223 68.267 19.911 105.244 19.911h383.999c8.533-25.6 14.223-54.044 14.223-85.333 0-142.222-113.777-256-256-256z"></path>
<path fill="#ffe082" d="M426.667 742.399c-110.933 0-199.11 88.177-199.11 199.11 0 28.444 5.689 54.044 17.067 79.644 14.223 2.844 25.6 2.844 39.823 2.844h324.266c11.377-25.6 17.067-54.044 17.067-82.489 0-110.933-88.177-199.11-199.11-199.11z"></path>
<path fill="#ffecb3" d="M426.667 799.288c-79.644 0-142.222 62.577-142.222 142.222 0 31.289 11.377 59.733 28.444 82.489h227.556c17.067-22.756 28.444-51.2 28.444-82.489 0-79.644-62.577-142.222-142.222-142.222z"></path>
<path fill="#fff" d="M682.666 910.221h-341.333c-125.156 0-227.556-102.4-227.556-227.556v-341.333c0-125.156 102.4-227.556 227.556-227.556h341.333c125.156 0 227.556 102.4 227.556 227.556v341.333c0 125.156-102.4 227.556-227.556 227.556zM341.334 170.666c-93.867 0-170.666 76.8-170.666 170.666v341.333c0 93.867 76.8 170.666 170.666 170.666h341.333c93.867 0 170.666-76.8 170.666-170.666v-341.333c0-93.867-76.8-170.666-170.666-170.666h-341.333z"></path>
<path fill="#fff" d="M512 711.109c-110.933 0-199.11-88.177-199.11-199.11s88.177-199.11 199.11-199.11c110.933 0 199.11 88.177 199.11 199.11s-88.177 199.11-199.11 199.11zM512 369.777c-79.644 0-142.222 62.577-142.222 142.222s62.577 142.222 142.222 142.222 142.222-62.577 142.222-142.222-62.577-142.222-142.222-142.222z"></path>
<path fill="#fff" d="M739.556 284.443c0 17.067-11.377 28.444-28.444 28.444s-28.444-11.377-28.444-28.444 11.377-28.444 28.444-28.444 28.444 11.377 28.444 28.444z"></path>
</svg>
