<!-- Generated by IcoMoon.io -->
<svg version="1.1" xmlns="http://www.w3.org/2000/svg" width="1024" height="1024" viewBox="0 0 1024 1024">
<title></title>
<g id="icomoon-ignore">
</g>
<path fill="#000" d="M296.96 0h430.080c163.839 0 296.96 133.119 296.96 296.96v430.080c0 164.006-132.954 296.96-296.96 296.96v0h-430.080c-163.839 0-296.96-133.119-296.96-296.96v-430.080c0-164.006 132.954-296.96 296.96-296.96v0zM286.721 102.401c-101.797 0-184.32 82.523-184.32 184.32v0 450.56c0 101.888 82.432 184.32 184.32 184.32h450.56c101.797 0 184.32-82.523 184.32-184.32v0-450.56c0-101.888-82.432-184.32-184.32-184.32h-450.56zM780.8 179.201c35.346 0 64 28.654 64 64v0c0 35.346-28.654 64-64 64v0c-35.346 0-64-28.654-64-64v0c0-35.346 28.654-64 64-64v0zM512 256.001c141.385 0 255.999 114.615 255.999 255.999v0c0 141.385-114.615 255.999-255.999 255.999v0c-141.385 0-255.999-114.615-255.999-255.999v0c0-141.385 114.615-255.999 255.999-255.999v0zM512 358.4c-84.83 0-153.6 68.77-153.6 153.6v0c0 84.83 68.77 153.6 153.6 153.6v0c84.83 0 153.6-68.77 153.6-153.6v0c0-84.83-68.77-153.6-153.6-153.6v0z"></path>
</svg>
