<?xml version="1.0" encoding="utf-8"?><!DOCTYPE svg PUBLIC "-//W3C//DTD SVG 1.1//EN" "http://www.w3.org/Graphics/SVG/1.1/DTD/svg11.dtd"><svg version="1.1" xmlns="http://www.w3.org/2000/svg" xmlns:xlink="http://www.w3.org/1999/xlink" width="32" height="32" viewBox="0 0 32 32" data-tags="stackoverflow"><g fill="#444" transform="scale(0.03125 0.03125)"><path fill="rgb(254, 122, 22)" d="M810.069 932.907v-273.237h91.051v364.331h-822.443v-364.331h90.88v273.237h640.512zM260.736 841.856h458.197v-91.179h-458.197v91.179zM271.787 634.837l447.147 93.397 19.243-88.32-447.061-93.312-19.328 88.235zM329.771 419.115l414.080 193.28 38.528-83.2-414.123-193.28-38.485 82.603v0.597zM445.611 214.955l350.592 292.48 57.984-69.12-350.549-292.395-57.6 68.992-0.427 0.043zM672.043 0l-74.496 55.211 273.28 367.104 74.496-55.211-273.28-367.104z" /></g></svg>