<!-- Generated by IcoMoon.io -->
<svg version="1.1" xmlns="http://www.w3.org/2000/svg" width="1024" height="1024" viewBox="0 0 1024 1024">
<title></title>
<g id="icomoon-ignore">
</g>
<path d="M810.069 932.907v-273.237h91.051v364.331h-822.442v-364.331h90.88v273.237h640.511zM260.736 841.856h458.197v-91.179h-458.197v91.179zM271.787 634.837l447.147 93.397 19.243-88.32-447.061-93.312-19.328 88.235zM329.771 419.115l414.080 193.28 38.528-83.2-414.123-193.28-38.485 82.603v0.597zM445.611 214.955l350.592 292.48 57.984-69.12-350.549-292.395-57.6 68.992-0.427 0.043zM672.043 0l-74.496 55.211 273.28 367.104 74.496-55.211-273.28-367.104z"></path>
</svg>
