<!-- Generated by IcoMoon.io -->
<svg version="1.1" xmlns="http://www.w3.org/2000/svg" width="1024" height="1024" viewBox="0 0 1024 1024">
<title></title>
<g id="icomoon-ignore">
</g>
<path fill="#000" d="M113.777-0.001h796.445c62.837 0 113.777 50.94 113.777 113.777v0 796.445c0 62.837-50.94 113.777-113.777 113.777v0h-796.445c-62.837 0-113.777-50.94-113.777-113.777v0-796.445c0-62.837 50.94-113.777 113.777-113.777v0zM836.836 360.106c27.307-22.756 59.164-50.063 73.387-80.213-23.324 11.947-51.2 19.343-81.92 23.324 28.444-20.48 51.769-47.217 63.716-83.627-29.583 15.929-59.733 29.583-97.28 36.409-88.177-106.383-299.236-19.911-261.69 139.377-148.48-9.103-238.934-76.231-314.027-158.72-42.667 69.404-5.689 174.65 44.943 203.663-26.169-1.707-46.080-9.671-64.853-18.773 2.276 87.609 50.631 129.707 118.329 152.463-20.48 3.983-43.236 5.12-64.853 1.707 21.049 60.871 64.853 98.987 139.947 106.951-51.2 43.236-145.636 73.387-221.867 61.44 65.423 41.529 139.947 74.524 243.484 69.973 250.88-11.377 418.703-191.147 422.684-453.974z"></path>
</svg>
